<svg id="svg" xmlns="http://www.w3.org/2000/svg" xmlns:xlink="http://www.w3.org/1999/xlink" width="400" height="400" viewBox="0, 0, 400,400"><g id="svgg"><path id="path0" d="M187.500 86.762 C 187.500 113.431,167.152 132.705,160.395 112.436 C 158.063 105.440,147.001 125.173,135.812 156.288 C 124.623 187.402,119.809 215.542,125.114 218.820 C 130.419 222.099,138.520 204.730,143.118 180.223 C 150.059 143.223,154.532 138.200,169.489 150.613 C 184.208 162.829,187.500 160.712,187.500 139.031 C 187.500 124.439,193.125 112.500,200.000 112.500 C 206.875 112.500,212.500 124.439,212.500 139.031 C 212.500 160.712,215.792 162.829,230.511 150.613 C 245.468 138.200,249.941 143.223,256.882 180.223 C 261.480 204.730,269.581 222.099,274.886 218.820 C 280.191 215.542,275.377 187.402,264.188 156.288 C 252.999 125.173,241.937 105.440,239.605 112.436 C 232.848 132.705,212.500 113.431,212.500 86.762 C 212.500 73.418,206.875 62.500,200.000 62.500 C 193.125 62.500,187.500 73.418,187.500 86.762 M89.864 240.840 C 95.576 309.718,95.325 310.322,57.185 319.516 C 20.984 328.242,20.503 329.100,48.901 334.275 C 72.539 338.583,75.239 342.307,61.401 351.515 C 49.842 359.206,56.692 359.893,81.250 353.505 C 101.875 348.140,155.313 343.750,200.000 343.750 C 244.688 343.750,298.125 348.140,318.750 353.505 C 343.308 359.893,350.158 359.206,338.599 351.515 C 324.761 342.307,327.461 338.583,351.099 334.275 C 379.497 329.100,379.016 328.242,342.815 319.516 C 304.675 310.322,304.424 309.718,310.136 240.840 C 313.829 196.305,311.405 174.201,303.372 179.166 C 296.487 183.421,293.547 200.996,296.839 218.221 C 311.752 296.232,295.043 312.500,200.000 312.500 C 104.957 312.500,88.248 296.232,103.161 218.221 C 106.453 200.996,103.513 183.421,96.628 179.166 C 88.595 174.201,86.171 196.305,89.864 240.840 " stroke="none" fill="#000000" fill-rule="evenodd"></path></g></svg>