<?xml version="1.0" standalone="no"?>
<!DOCTYPE svg PUBLIC "-//W3C//DTD SVG 20010904//EN"
 "http://www.w3.org/TR/2001/REC-SVG-20010904/DTD/svg10.dtd">
<svg version="1.0" xmlns="http://www.w3.org/2000/svg"
 width="32.000000pt" height="32.000000pt" viewBox="0 0 32.000000 32.000000"
 preserveAspectRatio="xMidYMid meet">

<g transform="translate(0.000000,32.000000) scale(0.100000,-0.100000)"
fill="#000000" stroke="none">
<path d="M108 259 c-6 -17 -18 -29 -31 -31 -30 -4 -30 -42 1 -46 18 -3 22 -10
22 -36 0 -17 6 -38 13 -45 10 -10 7 -16 -15 -33 -17 -12 -28 -29 -28 -44 0
-24 1 -24 90 -24 89 0 90 0 90 24 0 14 4 27 10 31 11 7 -19 45 -35 45 -6 0 -9
16 -7 39 3 32 8 41 25 43 30 4 30 42 0 46 -13 2 -25 14 -31 31 -9 25 -15 28
-52 28 -37 0 -43 -3 -52 -28z m92 10 c0 -4 2 -13 5 -21 4 -10 -7 -13 -45 -13
-38 0 -49 3 -45 13 3 8 5 17 5 21 0 5 18 8 40 8 22 0 40 -3 40 -8z m43 -47 c9
-1 17 -9 17 -17 0 -17 -45 -21 -55 -5 -3 6 -24 10 -45 10 -21 0 -42 -4 -45
-10 -3 -5 -17 -10 -31 -10 -31 0 -32 27 -1 32 20 4 117 3 160 0z m-35 -65 c3
-31 -2 -43 -22 -62 l-26 -24 -25 23 c-17 16 -25 34 -25 58 0 45 6 50 55 46 39
-3 40 -4 43 -41z m26 -78 c-8 -13 -21 -11 -27 5 -4 10 0 12 14 9 10 -3 16 -9
13 -14z m-58 -4 l16 20 -4 -20 c-2 -14 -11 -20 -28 -20 -17 0 -26 6 -28 20
l-4 20 16 -20 16 -20 16 20z m-15 -35 c8 0 20 5 27 12 6 6 23 12 37 14 20 2
25 -1 21 -12 -3 -9 -6 -22 -6 -30 0 -11 -18 -14 -80 -14 -73 0 -80 2 -80 20 0
27 31 42 51 24 8 -8 22 -14 30 -14z"/>
<path d="M131 154 c0 -11 3 -14 6 -6 3 7 2 16 -1 19 -3 4 -6 -2 -5 -13z"/>
<path d="M181 154 c0 -11 3 -14 6 -6 3 7 2 16 -1 19 -3 4 -6 -2 -5 -13z"/>
</g>
</svg>
