<?xml version="1.0" standalone="no"?>
<!DOCTYPE svg PUBLIC "-//W3C//DTD SVG 20010904//EN"
 "http://www.w3.org/TR/2001/REC-SVG-20010904/DTD/svg10.dtd">
<svg version="1.0" xmlns="http://www.w3.org/2000/svg"
 width="32.000000pt" height="32.000000pt" viewBox="0 0 32.000000 32.000000"
 preserveAspectRatio="xMidYMid meet">

<g transform="translate(0.000000,32.000000) scale(0.100000,-0.100000)"
fill="#000000" stroke="none">
<path d="M118 210 c-27 -27 -30 -36 -25 -73 4 -30 1 -47 -10 -59 -15 -17 -12
-18 59 -18 60 0 78 4 91 18 20 22 23 54 4 46 -8 -3 -20 2 -27 11 -17 21 5 51
26 34 11 -9 14 -6 14 14 0 59 -83 76 -132 27z m103 10 c10 -6 19 -18 19 -26 0
-8 -4 -13 -9 -10 -4 3 -17 -4 -27 -15 -19 -21 -18 -21 9 -44 33 -29 34 -37 4
-30 -15 4 -28 1 -36 -9 -15 -18 -97 -23 -86 -5 4 6 14 8 21 5 13 -5 12 -2 -1
16 -48 70 31 158 106 118z m-6 -140 c-3 -5 -13 -10 -21 -10 -8 0 -12 5 -9 10
3 6 13 10 21 10 8 0 12 -4 9 -10z"/>
<path d="M171 184 c0 -11 3 -14 6 -6 3 7 2 16 -1 19 -3 4 -6 -2 -5 -13z"/>
</g>
</svg>
