<?xml version="1.0" standalone="no"?>
<!DOCTYPE svg PUBLIC "-//W3C//DTD SVG 20010904//EN"
 "http://www.w3.org/TR/2001/REC-SVG-20010904/DTD/svg10.dtd">
<svg version="1.0" xmlns="http://www.w3.org/2000/svg"
 width="32.000000pt" height="32.000000pt" viewBox="0 0 32.000000 32.000000"
 preserveAspectRatio="xMidYMid meet">

<g transform="translate(0.000000,32.000000) scale(0.100000,-0.100000)"
fill="#000000" stroke="none">
<path d="M46 175 c-15 -23 -15 -30 -4 -56 15 -33 23 -36 37 -11 10 16 10 16
11 0 0 -10 7 -18 16 -18 12 0 14 10 12 53 -3 48 -5 52 -29 55 -19 2 -31 -4
-43 -23z m64 -5 c0 -15 -7 -20 -25 -20 -18 0 -25 5 -25 20 0 15 7 20 25 20 18
0 25 -5 25 -20z m-63 -32 c-3 -8 -6 -5 -6 6 -1 11 2 17 5 13 3 -3 4 -12 1 -19z
m62 -20 c-1 -17 -2 -19 -6 -5 -5 20 -29 23 -36 5 -3 -8 -6 -6 -6 5 -1 12 7 17
24 17 20 0 25 -5 24 -22z"/>
<path d="M140 145 l0 -55 33 1 c17 1 24 3 15 6 -14 3 -18 15 -18 54 0 37 -4
49 -15 49 -12 0 -15 -13 -15 -55z m17 -22 c-2 -16 -4 -5 -4 22 0 28 2 40 4 28
2 -13 2 -35 0 -50z"/>
<path d="M214 187 c-3 -8 -4 -32 -2 -53 3 -36 5 -39 33 -39 29 0 30 1 30 50 0
47 -2 50 -28 53 -17 2 -29 -2 -33 -11z m13 -64 c-2 -16 -4 -5 -4 22 0 28 2 40
4 28 2 -13 2 -35 0 -50z m43 22 c0 -33 -4 -45 -15 -45 -11 0 -15 12 -15 45 0
33 4 45 15 45 11 0 15 -12 15 -45z"/>
</g>
</svg>
