<?xml version="1.0" standalone="no"?>
<!DOCTYPE svg PUBLIC "-//W3C//DTD SVG 20010904//EN"
 "http://www.w3.org/TR/2001/REC-SVG-20010904/DTD/svg10.dtd">
<svg version="1.0" xmlns="http://www.w3.org/2000/svg"
 width="32.000000pt" height="32.000000pt" viewBox="0 0 32.000000 32.000000"
 preserveAspectRatio="xMidYMid meet">

<g transform="translate(0.000000,32.000000) scale(0.100000,-0.100000)"
fill="#000000" stroke="none">
<path d="M66 231 c-14 -16 -17 -34 -15 -84 3 -46 0 -69 -11 -83 -14 -16 -13
-17 5 -9 11 5 58 10 105 13 108 5 120 15 120 92 0 78 -14 90 -112 90 -61 0
-78 -3 -92 -19z m182 -3 c16 -16 16 -123 0 -136 -7 -5 -51 -12 -98 -13 l-86
-4 -3 68 c-1 42 2 74 10 83 15 18 159 20 177 2z"/>
<path d="M122 180 c0 -14 2 -19 5 -12 2 6 2 18 0 25 -3 6 -5 1 -5 -13z"/>
<path d="M192 180 c0 -14 2 -19 5 -12 2 6 2 18 0 25 -3 6 -5 1 -5 -13z"/>
<path d="M130 131 c0 -5 7 -14 15 -21 12 -10 18 -10 30 0 23 19 18 30 -15 30
-16 0 -30 -4 -30 -9z m42 -13 c-9 -9 -15 -9 -24 0 -9 9 -7 12 12 12 19 0 21
-3 12 -12z"/>
</g>
</svg>
